<svg width="18" height="16" viewBox="0 0 18 16" fill="none" xmlns="http://www.w3.org/2000/svg">
<path fill-rule="evenodd" clip-rule="evenodd" d="M17.7806 8.53063L11.0306 15.2806C10.7376 15.5737 10.2624 15.5737 9.96937 15.2806C9.67632 14.9876 9.67632 14.5124 9.96937 14.2194L15.4397 8.75H0.75C0.335786 8.75 0 8.41421 0 8C0 7.58579 0.335786 7.25 0.75 7.25H15.4397L9.96937 1.78062C9.67632 1.48757 9.67632 1.01243 9.96937 0.719375C10.2624 0.426319 10.7376 0.426319 11.0306 0.719375L17.7806 7.46937C17.9215 7.61005 18.0006 7.80094 18.0006 8C18.0006 8.19906 17.9215 8.38995 17.7806 8.53063V8.53063Z" fill="#0F141A"/>
</svg>
